<?xml version="1.0" encoding="iso-8859-1"?>
<!-- Generator: Adobe Illustrator 14.0.0, SVG Export Plug-In . SVG Version: 6.00 Build 43363)  -->
<!DOCTYPE svg PUBLIC "-//W3C//DTD SVG 1.1//EN" "http://www.w3.org/Graphics/SVG/1.1/DTD/svg11.dtd">
<svg version="1.1" id="&#x30EC;&#x30A4;&#x30E4;&#x30FC;_1"
	 xmlns="http://www.w3.org/2000/svg" xmlns:xlink="http://www.w3.org/1999/xlink" x="0px" y="0px" width="800px" height="800px"
	 viewBox="0 0 800 800" style="enable-background:new 0 0 800 800;" xml:space="preserve">
<path d="M126,48c0,0,2.75-4.25,7-6.75c3.29-1.935,19.162-10.761,26.167-14.65c2.044-1.135,5.548-2.026,8.673-1.771
	c5.208,0.425,12.942,2.046,17.161,7.671c6.75,9,5.5,18.5,1.25,26.75s-16.25,9.5-23,15S153,125.5,154.75,157s-6.75,163-3,171.75
	S155.5,338,159,340s64.5-39.5,150-11.75s161.25,30,187.5,22s43-19,42-43.5s-5.166-32,0.042-38.25S549,275,559,280.25
	s26.5,16.25,29.5,26.5c0,0,34.5,1,48.75,8.5c0,0,60-40.25,66.5-31.75s-7.5,55.75-16.75,60.25c0,0,11.25,66.75-60.5,94.25
	c0,0-0.997,44.991-24.169,96.014c-3.624,7.98-11.081,19.486-12.581,24.236s-0.923,14.25-1.341,32.242
	c-0.387,16.626-0.343,36.447,1.258,51.175c2.789,25.662,6.088,51.036,6.667,52.667s0.373,2.348,4.183,7.506
	c3.613,4.894,10.319,12.315,22.733,22.66c25.5,21.25,16.5,13,27.75,14.25s1.333,13.5-5.25,14.5s-16.001,0.167-25.25,0
	s-18.167-13.917-23.5-16s-20.266-0.479-24.41-12.385c-1.029-2.958,1.809-9.392-0.09-11.365s-0.711-0.705-1.898-1.974
	C565.235,705.793,550.139,688.559,547,673c-3.833-19-36.666-49.333-43.666-68.333s-36.166-13.668-39.5-13.334
	s-24.168,18.333-27.834,53s-2.166,37.668-0.333,46.834s6.833,9.5,7,19s-5.333,14.334-23.333,14.5S381.75,726.5,386.5,700.25
	s3.75-88.75,0.75-94.5c0,0-48-5.5-61.5-1.75s-30.75,19.75-38.5,25.5s-31.917,46.999-33.25,53.75s0.25,38.25,1.75,58.25
	s19.25-1.5,32.5,16s-5,23.25-17.25,24s-27.25-0.25-41.75-0.25s-20.5-24-22-28.5c0,0-18.416,1.751-28.083-20.416
	S174,702.335,159,680.501s-1.833-31.666-3.167-48.5s5.5-14.333-0.167-48s-3.333,4.332-6.333-41.334s-43.667-31.332-29-160
	c0,0-16.333-15.167-12.333-91.667S104.5,68.5,126,48z"/>
<rect style="fill:none;" width="800" height="800"/>
<path style="fill:none;" d="M299,143"/>
</svg>
